<svg width="48" height="49" viewBox="0 0 48 49" fill="none" xmlns="http://www.w3.org/2000/svg">
<path fill-rule="evenodd" clip-rule="evenodd" d="M9.11153 28.7381C9.57996 29.0306 9.88176 29.3195 10.3352 29.6849L14.0061 33.0891C14.772 33.8179 16.7323 35.7974 17.4861 36.6749C18.0003 37.2735 18.2234 37.3379 18.6017 37.9279C18.463 37.9794 16.748 38.3734 15.7511 38.7146C13.6771 39.4297 11.7827 40.574 9.97401 39.9604C9.70368 39.8689 8.47217 38.6924 7.90791 38.2948C7.57393 38.0595 7.25568 37.8378 6.87092 37.5689C5.77029 36.8001 5.4549 37.3293 6.91741 33.9216C7.29931 33.0312 7.62328 32.2288 7.99015 31.3556C8.30769 30.5925 8.74608 29.3595 9.11439 28.7352L9.11153 28.7381ZM35.4874 8.17001C36.2426 8.43248 38.0727 9.47876 38.5219 10.0416C38.8995 10.515 38.79 10.5587 38.6506 11.2416L37.9061 17.0645C36.8748 17.1024 37.1723 16.9794 36.5337 16.5503C35.461 15.8308 31.7822 13.1139 30.6014 12.1613L28.3294 10.342C28.4974 10.1853 28.2722 10.2704 28.6505 10.1689L32.0117 9.41153C33.7639 8.96885 34.0385 8.85371 35.4874 8.17001ZM5.34119 9.34073C6.11142 8.91163 6.52193 9.23703 7.82138 8.29588C8.16966 8.04343 8.97136 8.06846 9.45767 8.13497C9.96186 8.20649 11.1233 9.17267 11.6554 9.4995C11.9636 9.6883 13.3489 10.7467 13.5749 11.1129L14.2593 12.2178C15.2026 12.2643 15.0366 12.2092 16.2267 13.0796L27.6142 20.5974C30.0636 22.2988 32.9207 24.0373 35.3837 25.7523L42.4059 30.3465C42.2035 30.782 41.9668 32.2846 41.8338 32.8853C41.2259 35.6451 40.4614 36.8144 39.2234 39.4648C37.4448 39.5363 36.041 39.5213 34.3031 39.4934C33.741 39.4848 33.879 39.6028 33.5715 39.3046C32.5538 38.3184 30.7037 36.1579 29.6746 35.1566C29.317 34.8119 28.9995 34.488 28.6476 34.1132C25.802 31.0817 27.1493 31.9949 26.5922 31.2397L20.8674 25.8288C19.5536 24.5508 18.3693 23.1748 17.0105 21.7352C16.6615 21.3655 16.4863 21.02 16.123 20.6811L16.0164 20.5931C15.9624 20.5438 15.9122 20.4905 15.8662 20.4336L14.2028 18.5434C14.0295 18.3881 13.869 18.219 13.7229 18.0378L12.2296 16.4924C11.9007 16.1469 11.6446 15.7901 11.3314 15.4196L9.90107 13.9035C9.68652 13.6889 9.53419 13.6224 9.32465 13.4029C8.64524 12.6956 8.07383 12.0176 7.38656 11.3103C6.83731 10.7446 5.49924 9.65683 5.34048 9.34002L5.34119 9.34073ZM12.2068 0.886086L0.458065 1.12996C-0.175568 3.46854 0.453774 2.28494 0.458065 4.72651V9.14692C0.361518 10.4235 0.028968 11.0736 0.028968 12.7814C0.028968 13.3535 -0.0976154 14.6744 0.178437 15.1242C0.661172 15.9202 0.648299 16.5968 0.854981 17.7482C1.03806 18.7716 1.23688 18.6636 0.775598 19.4352L0.561049 21.3905L1.56228 22.3724L1.56943 24.0888C0.971552 24.6366 1.64094 24.2469 0.376537 25.1615L0.489533 30.3472L1.73392 31.2504L1.4736 35.6716C0.161273 36.612 0.443762 37.7534 0.485242 38.9248L0.646153 43.3331L0.360088 45.593C3.30155 46.3296 2.65719 46.1001 6.01845 46.1001C8.98923 46.1001 8.60519 46.1308 11.5416 45.7739L11.6175 46.2746C12.0723 46.2452 12.5422 46.2202 12.9906 46.1766C14.2407 46.055 13.7415 45.9105 14.1713 45.7546C14.4824 45.6424 17.8308 46.419 18.3743 46.5363C18.6747 46.2009 18.5216 46.3361 18.9407 46.0657C19.1674 46.5435 20.1358 47.6391 20.5305 48.119L21.7427 46.9804L23.8639 47.8036L24.4854 47.2808C24.7278 47.5669 24.8751 47.9244 25.3078 47.9845C25.9379 48.0667 26.0401 47.0233 27.4304 46.9969L35.4874 46.728C35.5904 46.6286 35.6519 46.5692 35.7628 46.4605L36.1747 46.1258C36.7039 46.4448 36.9299 46.7516 37.6558 46.7037C39.8778 46.5563 38.715 47.2415 41.5835 47.087C42.0776 47.0605 41.9546 46.9389 42.3909 46.7852L43.3206 46.6422C43.1182 46.1001 42.9888 46.1766 42.5861 45.7711L47.6902 46.8031C47.6187 40.7957 47.6345 33.4653 47.711 27.2849L46.3393 27.3864C46.3886 26.9852 46.9872 27.1361 47.0344 26.3294C47.0938 25.3132 47.0824 21.8325 46.9343 21.0887C46.8592 20.7082 45.8909 19.5997 45.632 19.255C45.9402 18.4176 45.9703 18.4734 46.541 17.7911C46.4923 17.342 46.3872 17.219 46.1948 16.7105L47.6902 16.2206C47.7067 15.3624 47.8039 11.9074 47.7475 10.8168L47.1417 4.92246L47.6044 3.44923L47.6244 1.93523C46.3329 1.18788 46.5024 1.10779 45.6048 1.11637C44.8003 1.12209 43.7154 1.07918 42.9437 0.901819C41.9532 0.674398 42.2185 0.513487 41.1329 1.62842L40.6402 0.555681C39.089 0.44054 34.1165 0.00572143 32.9336 0.00572143C31.421 0.00572143 31.6406 0.119432 31.1299 1.83582L28.9609 2.05752L28.6748 1.11637L26.7081 1.0942L26.9162 0.864631C27.301 0.497753 27.1665 0.645791 27.4669 0H19.555C19.294 0.48345 18.8156 0.851042 18.2527 1.0377C17.4661 1.29945 17.8544 0.878219 17.3573 1.32376C16.9847 1.65775 16.9204 1.63701 16.3325 1.62485C15.5537 1.60911 14.7542 1.58408 13.9725 1.55333C13.6149 1.53831 13.218 1.57479 12.8726 1.49326C12.3405 1.36739 12.4957 1.22936 12.2046 0.885371L12.2068 0.886086Z" fill="white"/>
</svg>
